<svg xmlns="http://www.w3.org/2000/svg" viewBox="0 0 208.92 26.33"><defs><style>.cls-1{fill:#fff;}</style></defs><title>long-logo-white</title><g id="Layer_2" data-name="Layer 2"><g id="Layer_1-2" data-name="Layer 1"><path class="cls-1" d="M56.6,13.17V26.33H42q-11.32,0-11.7-10.3c0-.71,0-1.66,0-2.86s0-2.18,0-2.9a9.92,9.92,0,0,1,3.24-7.62C35.63.88,38.52,0,42.23,0H53.06V5.64H42.41a5.06,5.06,0,0,0-3.59,1.15,4.91,4.91,0,0,0-1.29,3.56c-.06.7-.08,1.63-.08,2.78s0,2.09.08,2.82a5.17,5.17,0,0,0,1.2,3.61,4.78,4.78,0,0,0,3.5,1.13h7.29V13.17Z"/><path class="cls-1" d="M26.3,13.17c0,1.2,0,2.15,0,2.86q-.39,10.3-11.7,10.3h-11V20.69H14.38a4.75,4.75,0,0,0,3.49-1.13A5.13,5.13,0,0,0,19.08,16c.05-.73.07-1.67.07-2.82s0-2.08-.07-2.78a4.92,4.92,0,0,0-1.3-3.56,5,5,0,0,0-3.59-1.15H7.08v7.53H0V0H14.38Q19.95,0,23,2.65c2.06,1.77,3.13,4.31,3.24,7.62C26.29,11,26.3,12,26.3,13.17Z"/><path class="cls-1" d="M67.62,21.41a.58.58,0,0,1-.18-.42V5.36a.63.63,0,0,1,.16-.44A.59.59,0,0,1,68,4.74h6.33a8.21,8.21,0,0,1,5.54,1.7A6.37,6.37,0,0,1,82,11.31c0,.47,0,1.08,0,1.86s0,1.38,0,1.82q-.24,6.6-7.49,6.6H68A.58.58,0,0,1,67.62,21.41ZM74.37,18a3.06,3.06,0,0,0,2.24-.72A3.31,3.31,0,0,0,77.38,15c0-.47.05-1.07.05-1.81s0-1.33-.05-1.78a3.13,3.13,0,0,0-.83-2.28,3.24,3.24,0,0,0-2.3-.73H72V18Z"/><path class="cls-1" d="M86,21.41a.58.58,0,0,1-.18-.42V5.36A.64.64,0,0,1,86,4.92a.57.57,0,0,1,.43-.18H97.75a.61.61,0,0,1,.62.62V7.75a.57.57,0,0,1-.18.43.64.64,0,0,1-.44.17H90.14v3.06h7.08a.61.61,0,0,1,.62.62v2.19a.61.61,0,0,1-.18.45.6.6,0,0,1-.44.18H90.14V18h7.8a.62.62,0,0,1,.63.63V21a.55.55,0,0,1-.18.43.6.6,0,0,1-.45.17H86.38A.58.58,0,0,1,86,21.41Z"/><path class="cls-1" d="M102.53,21.41a.58.58,0,0,1-.18-.42V5.36a.6.6,0,0,1,.17-.44.55.55,0,0,1,.43-.18h11.36a.61.61,0,0,1,.45.18.6.6,0,0,1,.18.44V7.75a.57.57,0,0,1-.18.43.64.64,0,0,1-.45.17h-7.6v3.06h7.07a.61.61,0,0,1,.45.18.6.6,0,0,1,.18.44v2.19a.62.62,0,0,1-.63.63h-7.07V18h7.8a.6.6,0,0,1,.44.18.61.61,0,0,1,.18.45V21a.55.55,0,0,1-.18.43.6.6,0,0,1-.44.17H103A.58.58,0,0,1,102.53,21.41Z"/><path class="cls-1" d="M119.09,21.41a.58.58,0,0,1-.18-.42V5.36a.64.64,0,0,1,.17-.44.57.57,0,0,1,.44-.18h6.81a7.67,7.67,0,0,1,4.91,1.42A5,5,0,0,1,133,10.32a4.85,4.85,0,0,1-1.78,4.11,7.91,7.91,0,0,1-4.91,1.36h-2.75V21a.6.6,0,0,1-.16.42.59.59,0,0,1-.44.18h-3.46A.58.58,0,0,1,119.09,21.41Zm7.12-9.06a2.23,2.23,0,0,0,1.55-.52,2,2,0,0,0,.57-1.53,2.22,2.22,0,0,0-.52-1.52,2.07,2.07,0,0,0-1.6-.57h-2.7v4.14Z"/><path class="cls-1" d="M138.19,20.13a6.36,6.36,0,0,1-2.1-4.85c0-.45,0-1.18,0-2.19s0-1.75,0-2.21a6.09,6.09,0,0,1,2.11-4.71,8.29,8.29,0,0,1,5.45-1.67,10.26,10.26,0,0,1,4,.74,6.53,6.53,0,0,1,2.62,1.92,4.17,4.17,0,0,1,.95,2.39.51.51,0,0,1-.16.38.5.5,0,0,1-.37.15H147a.64.64,0,0,1-.37-.08,1,1,0,0,1-.26-.25,2.85,2.85,0,0,0-.92-1.16,3,3,0,0,0-1.8-.48c-1.86,0-2.82,1-2.89,2.89,0,.45,0,1.14,0,2.07s0,1.63,0,2.09q.11,3.06,2.94,3.06a3.3,3.3,0,0,0,2.22-.7,2.64,2.64,0,0,0,.81-2.12V15h-2.14a.59.59,0,0,1-.44-.18.61.61,0,0,1-.18-.45V12.47a.61.61,0,0,1,.18-.45.59.59,0,0,1,.44-.18h6.12a.6.6,0,0,1,.44.18.61.61,0,0,1,.18.45v2.79a6.36,6.36,0,0,1-1,3.53,6.09,6.09,0,0,1-2.68,2.26,9.82,9.82,0,0,1-4,.78A8.06,8.06,0,0,1,138.19,20.13Z"/><path class="cls-1" d="M155.28,21.41a.58.58,0,0,1-.18-.42V5.36a.64.64,0,0,1,.17-.44.57.57,0,0,1,.43-.18h6.62a7.77,7.77,0,0,1,5,1.44,5,5,0,0,1,1.79,4.07,5.09,5.09,0,0,1-.78,2.87A5.25,5.25,0,0,1,166.15,15l3.25,5.87a.6.6,0,0,1,.07.27.51.51,0,0,1-.5.5h-3.4a1,1,0,0,1-1-.65l-2.65-5.22h-2.31V21a.55.55,0,0,1-.18.43.6.6,0,0,1-.45.17h-3.3A.58.58,0,0,1,155.28,21.41Zm7-9.23a2.18,2.18,0,0,0,1.58-.52,1.88,1.88,0,0,0,.54-1.43,2,2,0,0,0-.54-1.47,2.11,2.11,0,0,0-1.58-.55h-2.67v4Z"/><path class="cls-1" d="M172.29,21.43a.48.48,0,0,1-.15-.34.65.65,0,0,1,0-.22l5.61-15.43a.93.93,0,0,1,1-.7h3.76a.93.93,0,0,1,1,.7l5.61,15.43a.65.65,0,0,1,0,.22.48.48,0,0,1-.15.34.47.47,0,0,1-.35.16h-3.13a.84.84,0,0,1-.82-.53l-.87-2.33h-6.3l-.87,2.33a.84.84,0,0,1-.82.53h-3.13A.47.47,0,0,1,172.29,21.43Zm6.18-6.31h4.28L180.61,9Z"/><path class="cls-1" d="M192.37,21.42a.55.55,0,0,1-.18-.43V5.36a.6.6,0,0,1,.18-.44.61.61,0,0,1,.45-.18h2.72a.89.89,0,0,1,.86.53l4.15,7.41,4.16-7.41a.91.91,0,0,1,.87-.53h2.72a.61.61,0,0,1,.62.62V21a.55.55,0,0,1-.18.43.6.6,0,0,1-.44.17h-3.06a.62.62,0,0,1-.6-.6V12.23L202,17a1,1,0,0,1-.84.56h-1.3a1,1,0,0,1-.85-.56l-2.57-4.76V21a.55.55,0,0,1-.18.43.6.6,0,0,1-.45.17h-3A.6.6,0,0,1,192.37,21.42Z"/></g></g></svg>